<?xml version="1.0"?>
<svg xmlns="http://www.w3.org/2000/svg" id="_x31__x2C_5" enable-background="new 0 0 24 24" height="512px" viewBox="0 0 24 24" width="512px" class=""><g><path d="m17 12c-1.103 0-2-.897-2-2s.897-2 2-2 2 .897 2 2-.897 2-2 2zm0-2.5c-.275 0-.5.225-.5.5s.225.5.5.5.5-.225.5-.5-.225-.5-.5-.5z" data-original="#000000" class="active-path" data-old_color="#000000" fill="#FFFFFF"/><path d="m13 17c-1.103 0-2-.897-2-2s.897-2 2-2 2 .897 2 2-.897 2-2 2zm0-2.5c-.275 0-.5.225-.5.5s.225.5.5.5.5-.225.5-.5-.225-.5-.5-.5z" data-original="#000000" class="active-path" data-old_color="#000000" fill="#FFFFFF"/><path d="m7 14c-1.103 0-2-.897-2-2s.897-2 2-2 2 .897 2 2-.897 2-2 2zm0-2.5c-.275 0-.5.225-.5.5s.225.5.5.5.5-.225.5-.5-.225-.5-.5-.5z" data-original="#000000" class="active-path" data-old_color="#000000" fill="#FFFFFF"/><path d="m13.93 14.59c-.165 0-.33-.054-.468-.164-.324-.259-.377-.73-.118-1.054l2.141-2.68c.26-.324.733-.375 1.054-.118.324.259.377.73.118 1.054l-2.141 2.68c-.149.185-.367.282-.586.282z" data-original="#000000" class="active-path" data-old_color="#000000" fill="#FFFFFF"/><path d="m11.669 15.08c-.111 0-.226-.025-.333-.078l-3.34-1.66c-.371-.185-.522-.635-.338-1.006.184-.37.632-.522 1.006-.338l3.34 1.66c.371.185.522.635.338 1.006-.131.264-.397.416-.673.416z" data-original="#000000" class="active-path" data-old_color="#000000" fill="#FFFFFF"/><path d="m3.75 10c-.414 0-.75-.336-.75-.75v-6.5c0-1.517 1.233-2.75 2.75-2.75h12.5c1.517 0 2.75 1.233 2.75 2.75v4.5c0 .414-.336.75-.75.75s-.75-.336-.75-.75v-4.5c0-.689-.561-1.25-1.25-1.25h-12.5c-.689 0-1.25.561-1.25 1.25v6.5c0 .414-.336.75-.75.75z" data-original="#000000" class="active-path" data-old_color="#000000" fill="#FFFFFF"/><path d="m18.25 24h-12.5c-1.517 0-2.75-1.233-2.75-2.75v-5.5c0-.414.336-.75.75-.75s.75.336.75.75v5.5c0 .689.561 1.25 1.25 1.25h12.5c.689 0 1.25-.561 1.25-1.25v-7.5c0-.414.336-.75.75-.75s.75.336.75.75v7.5c0 1.517-1.233 2.75-2.75 2.75z" data-original="#000000" class="active-path" data-old_color="#000000" fill="#FFFFFF"/></g> </svg>
